<?xml version="1.0" encoding="utf-8"?>
<!-- Generator: Adobe Illustrator 16.0.0, SVG Export Plug-In . SVG Version: 6.00 Build 0)  -->
<!DOCTYPE svg PUBLIC "-//W3C//DTD SVG 1.1//EN" "http://www.w3.org/Graphics/SVG/1.1/DTD/svg11.dtd">
<svg version="1.1" id="Capa_1" xmlns="http://www.w3.org/2000/svg" xmlns:xlink="http://www.w3.org/1999/xlink" x="0px" y="0px"
	 width="512px" height="512px" viewBox="0 0 512 512" enable-background="new 0 0 512 512" xml:space="preserve">
<g>
	<path fill="#FC3D6A" d="M10,512h492c5.523,0,10-4.478,10-10s-4.477-10-10-10h-30.395c-8.862-19.326-15.03-40.328-18.334-62.534
		c-0.813-5.463-5.899-9.227-11.363-8.419c-5.462,0.813-9.232,5.899-8.419,11.362c3.114,20.927,8.581,40.903,16.295,59.591h-65.483
		l-7.871-76.185c-2.107-18.974-3.012-38.292-2.709-57.446c18.153-49.779,54.646-96.793,102.525-132.949
		c-7.552,17.362-31.156,53.151-41.46,114.059c-0.921,5.445,2.746,10.606,8.191,11.528c5.447,0.913,10.607-2.747,11.528-8.192
		c10.647-62.928,35.482-96.18,56.455-142.371c1.973-3.978,1.087-8.779-2.176-11.791c-3.262-3.013-8.121-3.511-11.927-1.228
		c-49.932,29.956-91.356,70.853-118.901,116.396c11.213-80.628,44.112-157.807,95.133-221.573c2.999-3.748,2.912-9.099-0.208-12.747
		c-3.12-3.647-8.392-4.565-12.561-2.183c-66.025,37.722-119.973,92.885-156.181,159.212C302.516,216.471,265.85,8.266,265.85,8.266
		C265.007,3.486,260.854,0,256,0c-4.854,0-9.007,3.485-9.849,8.267c0,0-36.783,208.894-38.454,219.289
		c-36.2-66.771-90.368-122.316-156.737-160.238c-4.168-2.384-9.442-1.466-12.561,2.183c-3.12,3.648-3.208,8.999-0.208,12.747
		c50.671,63.331,83.5,139.985,94.917,220.055c-27.558-44.938-68.661-85.301-117.965-114.877c-3.808-2.284-8.665-1.784-11.927,1.229
		c-3.262,3.012-4.148,7.813-2.175,11.791l29.81,60.099C68.146,335.749,71.633,423.791,40.389,492H10c-5.523,0-10,4.479-10,10
		C0,507.522,4.478,512,10,512L10,512z M425.992,114.073c-56.58,90.214-81.278,197.423-69.449,303.875l7.65,74.053h-38.239
		c-0.461-76.463-6.193-156.058-16.663-231.093C335.965,202.537,375.792,152.557,425.992,114.073L425.992,114.073z M232.679,200.154
		L256,67.678c0,0,30.198,172.591,33.068,192.963c10.613,75.017,16.434,154.784,16.9,231.359h-99.938
		c0.466-76.11,6.227-155.459,16.732-230.152C225.663,241.146,228.996,220.409,232.679,200.154L232.679,200.154z M85.283,114.065
		c50.571,38.762,90.595,89.166,117.259,148.067C192.179,336.837,186.505,416.007,186.046,492h-38.959l7.643-73.975
		C166.143,315.389,143.768,207.317,85.283,114.065z M48.769,251.657L35.76,225.429c47.185,35.649,83.388,81.923,101.759,130.908
		c0.405,19.845-0.485,39.848-2.676,59.556L126.98,492H62.206C91.959,419.694,87.197,329.148,48.769,251.657z"/>
	<circle fill="#FC3D6A" cx="441" cy="386" r="10"/>
</g>
</svg>
