<?xml version="1.0" encoding="utf-8"?>
<!-- Generator: Adobe Illustrator 16.0.0, SVG Export Plug-In . SVG Version: 6.00 Build 0)  -->
<!DOCTYPE svg PUBLIC "-//W3C//DTD SVG 1.1//EN" "http://www.w3.org/Graphics/SVG/1.1/DTD/svg11.dtd">
<svg version="1.1" id="Layer_1" xmlns="http://www.w3.org/2000/svg" xmlns:xlink="http://www.w3.org/1999/xlink" x="0px" y="0px"
	 width="596px" height="596px" viewBox="0 0 596 596" enable-background="new 0 0 596 596" xml:space="preserve">
<g id="surface1">
	<path fill="#FC3D6A" d="M6.835,406.754l10.635,3.543c50.977,16.958,98.541,42.83,140.477,76.411l84.167,67.338
		c0.57,0.395,1.184,0.73,1.828,0.992l-0.059,0.129l34.233,17.131v23.656h19.86V451.951l35.753-26.816l-0.105-0.137
		c0.406-0.234,0.797-0.496,1.172-0.785c62.89-62.687,144.796-102.744,232.889-113.906l19.533-2.441
		c5.444-0.684,9.303-5.646,8.619-11.092c-0.469-3.737-3.015-6.89-6.573-8.135l-82.617-28.91
		c-67.299-23.555-140.952,11.909-164.508,79.211c-0.438,1.246-0.855,2.504-1.254,3.766l-21.622,68.459l-21.282,15.958V284.158
		c-0.023-19.052,9.507-36.85,25.376-47.399l-0.109-0.16c0.574-0.305,1.116-0.668,1.616-1.082
		c39.894-39.904,60.734-95.018,57.227-151.334l-4.659-74.794c-0.293-4.707-3.852-8.554-8.519-9.217
		c-4.659-0.621-9.124,2.082-10.736,6.495l-32.121,89.901c-12.014,33.577-18.153,68.979-18.142,104.646v22.375
		c-18.779,14.49-29.781,36.862-29.797,60.582v19.673l-10.1-10.1c-1.691-73.849-49.583-138.68-119.671-162.008l-65.713-21.849
		c-5.206-1.742-10.831,1.066-12.568,6.269c-0.574,1.711-0.668,3.546-0.273,5.308l10.924,49.282
		c17.498,80.403,88.854,137.605,171.136,137.199h2.292l23.977,23.974V550.09l-19.864-9.933V519.73
		c-0.004-85.84-69.592-155.424-155.432-155.42c-16.705,0-33.304,2.695-49.153,7.98l-46.837,15.61
		c-5.214,1.715-8.05,7.327-6.335,12.537c0.984,2.996,3.335,5.348,6.335,6.335V406.754z M359.824,348.665
		c14.377-45.393,56.445-76.287,104.06-76.423c12.335,0.02,24.575,2.117,36.21,6.207l43.865,15.357
		c-71.986,12.917-139.383,44.314-195.586,91.121L359.824,348.665z M327.774,201.213c-0.012-33.386,5.726-66.526,16.962-97.963
		l15.893-44.412l1.656,26.586c2.586,41.654-9.64,82.883-34.511,116.394V201.213z M100.138,166.382l-7.151-32.167l49.071,16.357
		c54.364,18.095,94.323,64.683,103.931,121.163l-80.024-80.024l-14.045,14.041l81.211,81.211
		C167.578,279.334,114.128,230.876,100.138,166.382z M59.976,391.131c71.017-23.68,147.78,14.693,171.457,85.707
		c4.612,13.83,6.964,28.316,6.96,42.893v5.901l-68.03-54.414c-39.014-31.253-82.734-56.129-129.533-73.7L59.976,391.131z"/>
</g>
</svg>
