<?xml version="1.0" encoding="utf-8"?>
<!-- Generator: Adobe Illustrator 16.0.0, SVG Export Plug-In . SVG Version: 6.00 Build 0)  -->
<!DOCTYPE svg PUBLIC "-//W3C//DTD SVG 1.1//EN" "http://www.w3.org/Graphics/SVG/1.1/DTD/svg11.dtd">
<svg version="1.1" id="Capa_1" xmlns="http://www.w3.org/2000/svg" xmlns:xlink="http://www.w3.org/1999/xlink" x="0px" y="0px"
	 width="1080px" height="1080px" viewBox="0 0 1080 1080" enable-background="new 0 0 1080 1080" xml:space="preserve">
<g>
	<g>
		<path fill="#FC3D6A" d="M880.491,642.6c-20.394-6.195-41.884-11.905-64.222-17.106c15.957-4.622,30.952-9.803,44.863-15.557
			c42.125-17.419,112.797-57.017,112.797-126.493S903.258,374.37,861.133,356.951c-41.017-16.961-91.329-29.05-148.66-35.933
			c42.753-26.72,65.857-60.153,65.857-96.437c0-45.227-35.864-86.037-100.984-114.919C622.451,85.32,550.585,71.358,480.174,71.358
			c-70.991,0-133.228,13.673-179.984,39.549c-50.811,28.116-78.796,68.485-78.796,113.674c0,45.189,27.985,85.556,78.796,113.674
			c5.524,3.056,11.285,5.931,17.229,8.644c-11.112,2.839-21.923,5.845-32.356,9.013c-45.267,13.753-81.515,29.863-107.736,47.885
			c-34.087,23.427-51.374,50.224-51.374,79.646c0,29.42,17.284,56.219,51.374,79.646c23.503,16.152,55.078,30.762,93.96,43.523
			c-49.142,9.005-93.144,21.401-130.929,37.027C49.847,681.064,0,736.193,0,798.862c0,62.67,49.847,117.801,140.355,155.225
			c86.31,35.69,205.055,54.553,343.396,54.553c140.196,0,284.806-19.505,396.74-53.515C1011.011,915.471,1080,861.435,1080,798.86
			S1011.011,682.256,880.491,642.6z M284.895,224.583c0-28.396,28.846-48.598,46.041-58.111
			c36.834-20.381,89.836-31.609,149.238-31.609c61.868,0,124.348,11.975,171.427,32.854c38.409,17.031,63.227,39.354,63.227,56.867
			c0,17.514-24.819,39.833-63.227,56.867c-47.079,20.876-109.563,32.852-171.427,32.852c-59.402,0-112.404-11.224-149.238-31.609
			C313.74,273.179,284.895,252.978,284.895,224.583z M189.451,483.445c0-8.933,20.495-38.342,114.069-66.772
			c81.304-24.703,186.944-38.869,289.831-38.869c98.033,0,184.518,13.437,243.517,37.832c46.75,19.33,73.563,44.046,73.563,67.81
			c0,23.765-26.813,48.48-73.563,67.811c-58.999,24.395-145.481,37.831-243.517,37.831c-102.885,0-208.524-14.166-289.831-38.869
			C209.946,521.788,189.451,492.377,189.451,483.445z M862.032,894.369c-106.201,32.267-244.08,50.771-378.281,50.771
			c-130.093,0-240.445-17.198-319.131-49.735C100.358,868.833,63.5,833.646,63.5,798.862c0-34.783,36.857-69.972,101.119-96.544
			c78.686-32.535,189.039-49.734,319.131-49.734c134.201,0,272.08,18.505,378.281,50.771
			c106.702,32.419,154.467,71.326,154.467,95.506S968.734,861.949,862.032,894.369z"/>
	</g>
</g>
</svg>
