<?xml version="1.0" encoding="utf-8"?>
<!-- Generator: Adobe Illustrator 16.0.0, SVG Export Plug-In . SVG Version: 6.00 Build 0)  -->
<!DOCTYPE svg PUBLIC "-//W3C//DTD SVG 1.1//EN" "http://www.w3.org/Graphics/SVG/1.1/DTD/svg11.dtd">
<svg version="1.1" id="_x33_0" xmlns="http://www.w3.org/2000/svg" xmlns:xlink="http://www.w3.org/1999/xlink" x="0px" y="0px"
	 width="512px" height="512px" viewBox="0 0 512 512" enable-background="new 0 0 512 512" xml:space="preserve">
<g>
	<path fill="#FC3D6A" d="M178.301,237.653l11.312-11.312l31.996,31.996l-11.312,11.312L178.301,237.653z"/>
	<path fill="#FC3D6A" d="M130.301,285.645l11.312-11.312l31.996,31.996l-11.312,11.312L130.301,285.645z"/>
	<path fill="#FC3D6A" d="M138.3,245.652l11.312-11.312l63.992,63.992l-11.312,11.313L138.3,245.652z"/>
	<path fill="#FC3D6A" d="M472,235.456V200c0-8.824-7.176-16-16-16h-16v-56c0-13.232-10.768-24-24-24h-16c-13.232,0-24,10.768-24,24
		v56h-16c-8.824,0-16,7.176-16,16v35.456c-19.8,11.88-32,32.937-32,56.319v40.129c-4.376-2.408-9.328-3.904-14.672-3.904H280
		V179.312c0-4.208-1.704-8.336-4.688-11.312L232,124.688V104c0-8.824-7.176-16-16-16h-16V72c0-8.824,7.176-16,16-16h32
		c7.512,0,14.695,3.584,19.2,9.592l11.192,14.936C281.896,85.2,287.48,88,293.336,88C303.624,88,312,79.624,312,69.336V64
		c0-30.872-25.12-56-56-56H120c-8.824,0-16,7.176-16,16v16c0,8.824,7.176,16,16,16h16c8.824,0,16,7.176,16,16v16h-16
		c-8.824,0-16,7.176-16,16v20.688L76.688,168C73.704,170.976,72,175.104,72,179.312V328H38.672C21.76,328,8,341.76,8,358.672
		c0,1.192,0.072,2.4,0.208,3.584l10.856,92.288C22.384,482.744,46.296,504,74.68,504h186.632c23.647,0,44.144-14.776,52.264-36
		c5.352,20.664,24.104,36,46.424,36h96c26.472,0,48-21.528,48-48V291.775C504,268.393,491.8,247.328,472,235.456z M392,128
		c0-4.416,3.592-8,8-8h16c4.408,0,8,3.584,8,8v56h-32V128z M360,200h96v32h-96V200z M216,104v16h-16v-16H216z M168,120v-16h16v16
		H168z M136,40h-16V24h136c22.057,0,40,17.944,40,40v5.336c0,2.304-3.416,3.44-4.8,1.6L280,55.992C272.488,45.976,260.52,40,248,40
		h-32c-11.792,0-22,6.48-27.552,16h-24.904C158,46.48,147.792,40,136,40z M168,72h16v16h-16V72z M136,104h16v16h-16V104z M88,184h64
		v-16H99.312l32-32h89.376l32,32H184v16h80v144h-16V224c0-13.232-10.768-24-24-24h-96c-13.232,0-24,10.768-24,24v104H88V184z
		 M232,328H120V224c0-4.416,3.592-8,8-8h96c4.408,0,8,3.584,8,8V328z M38.672,344h258.656c8.088,0,14.672,6.576,14.672,14.672
		c0,0.568-0.032,1.137-0.104,1.712L310.064,376H25.936l-1.84-15.624C24.032,359.809,24,359.24,24,358.672
		C24,350.576,30.584,344,38.672,344z M277.656,392l-8.088,57.12c-0.553,3.92-3.961,6.88-7.92,6.88H74.352
		c-3.96,0-7.368-2.96-7.92-6.872L58.344,392H277.656z M301.04,452.672C298.672,472.816,281.592,488,261.32,488H74.68
		c-20.28,0-37.36-15.184-39.728-35.328L27.824,392h14.36l8.4,59.368C52.256,463.128,62.472,472,74.352,472h187.296
		c11.879,0,22.096-8.872,23.768-20.64l8.4-59.36h14.367L301.04,452.672z M456,488h-96c-17.648,0-32-14.352-32-32V296h48v-16h-46.512
		c3.264-13.568,12.056-25.176,24.656-32h107.703c12.601,6.824,21.393,18.432,24.656,32H392v16h96v160
		C488,473.648,473.648,488,456,488z"/>
	<path fill="#FC3D6A" d="M408,312c-35.288,0-64,28.712-64,64v80c0,8.824,7.176,16,16,16h96c8.824,0,16-7.176,16-16v-80
		C472,340.712,443.288,312,408,312z M456.008,456H360v-80c0-26.473,21.528-48,48-48s48,21.527,48,48L456.008,456z"/>
	<path fill="#FC3D6A" d="M408,344c-17.528,0-32,54.384-32,64c0,17.648,14.352,32,32,32s32-14.352,32-32
		C440,398.384,425.528,344,408,344z M408,424c-8.824,0-16-7.176-16-16c0-9.264,9.712-35.968,16-45.607
		c6.288,9.64,16,36.344,16,45.607C424,416.824,416.824,424,408,424z"/>
</g>
</svg>
